<svg width="14" height="16" viewBox="0 0 14 16" fill="none" xmlns="http://www.w3.org/2000/svg">
<path d="M7.00021 16C6.04783 16 5.15576 15.8152 4.32402 15.4456C3.49227 15.076 2.76846 14.5767 2.15259 13.9478C1.53672 13.3188 1.04783 12.5796 0.685924 11.7302C0.324019 10.8808 0.143066 9.96975 0.143066 8.99713C0.143066 8.77667 0.216082 8.59187 0.362114 8.44274C0.508146 8.2936 0.689098 8.21903 0.904971 8.21903C1.12084 8.21903 1.3018 8.2936 1.44783 8.44274C1.59386 8.59187 1.66688 8.77667 1.66688 8.99713C1.66688 10.5144 2.18434 11.8015 3.21926 12.8584C4.25418 13.9153 5.5145 14.4438 7.00021 14.4438C8.48592 14.4438 9.74624 13.9153 10.7812 12.8584C11.8161 11.8015 12.3335 10.5144 12.3335 8.99713C12.3335 7.47984 11.8161 6.19274 10.7812 5.13583C9.74624 4.07891 8.48592 3.55045 7.00021 3.55045H6.88592L7.53354 4.21184C7.68592 4.36746 7.75894 4.54901 7.75259 4.7565C7.74624 4.964 7.67323 5.14555 7.53354 5.30117C7.38116 5.45679 7.20021 5.53784 6.99069 5.54433C6.78116 5.55081 6.60021 5.47624 6.44783 5.32062L4.48592 3.31703C4.33354 3.16141 4.25735 2.97985 4.25735 2.77236C4.25735 2.56487 4.33354 2.38331 4.48592 2.22769L6.44783 0.224092C6.60021 0.0684725 6.78116 -0.00609509 6.99069 0.000389048C7.20021 0.00687319 7.38116 0.0879249 7.53354 0.243544C7.67323 0.399164 7.74624 0.580719 7.75259 0.788212C7.75894 0.995704 7.68592 1.17726 7.53354 1.33288L6.88592 1.99426H7.00021C7.95259 1.99426 8.84465 2.17906 9.6764 2.54866C10.5081 2.91825 11.232 3.41753 11.8478 4.04649C12.4637 4.67545 12.9526 5.41464 13.3145 6.26407C13.6764 7.11349 13.8574 8.02451 13.8574 8.99713C13.8574 9.96975 13.6764 10.8808 13.3145 11.7302C12.9526 12.5796 12.4637 13.3188 11.8478 13.9478C11.232 14.5767 10.5081 15.076 9.6764 15.4456C8.84465 15.8152 7.95259 16 7.00021 16Z" fill="#0077C0"/>
</svg>
