<svg width="12" height="8" viewBox="0 0 12 8" fill="none" xmlns="http://www.w3.org/2000/svg">
<path d="M5.26744 7.16489L0.209302 1.76596C0.139535 1.69149 0.0872093 1.61082 0.0523256 1.52394C0.0174419 1.43706 0 1.34397 0 1.24468C0 1.0461 0.0639535 0.87234 0.19186 0.723404C0.319767 0.574468 0.488372 0.5 0.697674 0.5H11.3023C11.5116 0.5 11.6802 0.574468 11.8081 0.723404C11.936 0.87234 12 1.0461 12 1.24468C12 1.28569 11.9524 1.41138 11.8572 1.62177C11.8138 1.71755 11.7541 1.80504 11.6822 1.88176L6.73256 7.16489C6.61628 7.28901 6.5 7.37589 6.38372 7.42553C6.26744 7.47518 6.13953 7.5 6 7.5C5.86047 7.5 5.73256 7.47518 5.61628 7.42553C5.5 7.37589 5.38372 7.28901 5.26744 7.16489Z" fill="#999999"/>
</svg>
