<svg width="13" height="8" viewBox="0 0 13 8" fill="none" xmlns="http://www.w3.org/2000/svg">
<path d="M7.62282 0.835106L12.7863 6.23404C12.8576 6.30851 12.911 6.38918 12.9466 6.47606C12.9822 6.56294 13 6.65603 13 6.75532C13 6.9539 12.9347 7.12766 12.8041 7.2766C12.6736 7.42553 12.5015 7.5 12.2878 7.5L1.46221 7.5C1.24855 7.5 1.07643 7.42553 0.945857 7.27659C0.815285 7.12766 0.75 6.9539 0.75 6.75532C0.75 6.71434 0.798512 6.58883 0.895536 6.37878C0.939947 6.28263 1.00096 6.19504 1.07416 6.1185L6.12718 0.835105C6.24588 0.710992 6.36458 0.624112 6.48329 0.574467C6.60199 0.524822 6.73256 0.499999 6.875 0.499999C7.01744 0.499999 7.14801 0.524822 7.26672 0.574467C7.38542 0.624112 7.50412 0.710992 7.62282 0.835106Z" fill="#333333"/>
</svg>
