<svg width="28" height="28" viewBox="0 0 28 28" fill="none" xmlns="http://www.w3.org/2000/svg">
<g clip-path="url(#clip0_360_2097)">
<path d="M22.4355 17.8034L19.4722 17.4651C18.7605 17.3834 18.0605 17.6284 17.5589 18.1301L15.4122 20.2767C12.1105 18.5967 9.40387 15.9017 7.72387 12.5884L9.8822 10.4301C10.3839 9.92839 10.6289 9.22839 10.5472 8.51672L10.2089 5.57672C10.0689 4.39839 9.0772 3.51172 7.8872 3.51172H5.86887C4.55054 3.51172 3.45387 4.60839 3.53554 5.92672C4.15387 15.8901 12.1222 23.8467 22.0739 24.4651C23.3922 24.5467 24.4889 23.4501 24.4889 22.1317V20.1134C24.5005 18.9351 23.6139 17.9434 22.4355 17.8034Z" fill="#0077C0"/>
</g>
<defs>
<clipPath id="clip0_360_2097">
<rect width="28" height="28" fill="white"/>
</clipPath>
</defs>
</svg>
